# xmcd
#
# Track frame offsets: 
#        182
#        19457
#        31032
#        45020
#        59270
#        75507
#        95182
#        111762
#        129720
#        147845
#        163750
#        184470
#        200870
#        219352
#        235107
#
# Disc length: 3309 seconds
#
# Revision: 2
# Processed by: cddbd v1.4PL0 Copyright (c) Steve Scherf et al.
# Submitted via: ExactAudioCopy v0.90a11
#
DISCID=d10ceb0f
DTITLE=Vince Gill - Songs From The Heart - Disc 1
DYEAR=1900
DGENRE=
TTITLE0=When I Call Your Name
TTITLE1=Take Your Memory With You
TTITLE2=Oklahoma Swing
TTITLE3=Turn Me Loose
TTITLE4=Never Alone
TTITLE5=Golder Than Winter
TTITLE6=Oh Girl (You Know Where To Find Me)
TTITLE7=Look At Us
TTITLE8=Never Knew Lonely
TTITLE9=If It Weren't For Him
TTITLE10=We Won't Dance
TTITLE11=Oklahoma Borderline
TTITLE12=Pocket Full Of Gold
TTITLE13=We Could Have Been
TTITLE14=Liza Jane
EXTD=
EXTT0=
EXTT1=
EXTT2=
EXTT3=
EXTT4=
EXTT5=
EXTT6=
EXTT7=
EXTT8=
EXTT9=
EXTT10=
EXTT11=
EXTT12=
EXTT13=
EXTT14=
PLAYORDER=
